<?xml version="1.0" standalone="no"?>
<!DOCTYPE svg PUBLIC "-//W3C//DTD SVG 20010904//EN"
 "http://www.w3.org/TR/2001/REC-SVG-20010904/DTD/svg10.dtd">
<svg version="1.0" xmlns="http://www.w3.org/2000/svg"
 width="144.000000pt" height="144.000000pt" viewBox="0 0 144.000000 144.000000"
 preserveAspectRatio="xMidYMid meet">

<g transform="translate(0.000000,144.000000) scale(0.100000,-0.100000)"
fill="#000000" stroke="none">
<path d="M637 1282 c-47 -3 -48 -4 -43 -30 3 -15 8 -58 12 -95 l6 -68 47 7
c67 10 87 44 26 44 -28 0 -35 4 -35 20 0 13 7 20 20 20 13 0 20 7 20 20 0 15
-7 20 -25 20 -14 0 -25 5 -25 10 0 6 14 10 30 10 23 0 30 5 30 19 0 25 -5 27
-63 23z"/>
<path d="M740 1248 c0 -24 -3 -67 -6 -95 -6 -49 -5 -53 14 -53 18 0 23 8 28
42 l7 41 17 -44 c12 -29 24 -45 37 -47 18 -3 21 5 27 70 4 40 10 83 13 96 4
18 1 22 -20 22 -22 0 -26 -5 -29 -37 l-4 -38 -18 43 c-14 33 -23 42 -42 42
-22 0 -24 -4 -24 -42z"/>
<path d="M524 1260 l-21 -8 18 -74 c10 -40 19 -81 19 -90 0 -14 5 -16 23 -9
24 9 24 10 -1 117 -16 66 -19 71 -38 64z"/>
<path d="M943 1248 c-42 -11 -63 -42 -63 -93 0 -30 6 -47 23 -63 25 -23 77
-40 77 -24 0 6 3 17 6 25 4 11 -2 16 -22 19 -34 4 -49 27 -40 61 7 30 48 46
70 28 11 -9 15 -8 20 5 16 42 -10 58 -71 42z"/>
<path d="M444 1242 c-36 -5 -69 -49 -69 -90 l0 -37 -42 10 c-23 5 -37 12 -31
16 6 4 17 5 25 2 16 -6 17 18 1 40 -12 16 -15 16 -46 -3 -41 -25 -48 -44 -28
-74 11 -18 27 -26 53 -28 49 -4 53 -32 6 -36 -36 -4 -38 -7 -20 -38 l12 -21
40 21 c32 17 41 27 43 53 l3 33 28 -21 c48 -35 115 -9 97 38 -5 12 -9 14 -18
5 -15 -15 -51 -15 -66 0 -7 7 -12 24 -12 38 0 30 17 50 42 50 18 0 23 17 10
35 -4 6 -17 9 -28 7z"/>
<path d="M1050 1226 c0 -3 -13 -41 -30 -86 l-30 -81 46 -19 c25 -11 50 -18 55
-14 18 11 9 35 -17 44 -17 7 -24 16 -22 28 2 9 10 16 16 15 7 -2 18 -4 24 -5
7 -2 14 7 16 20 2 15 -2 22 -12 22 -9 0 -16 7 -16 15 0 12 5 13 27 4 20 -7 28
-6 35 3 13 22 10 26 -39 42 -51 18 -53 18 -53 12z"/>
<path d="M1150 1118 c-13 -35 -28 -69 -33 -75 -11 -15 -1 -46 13 -41 5 2 27
40 49 85 33 67 37 82 24 87 -27 11 -30 7 -53 -56z"/>
<path d="M603 973 c15 -2 39 -2 55 0 15 2 2 4 -28 4 -30 0 -43 -2 -27 -4z"/>
<path d="M497 950 c-71 -56 -96 -183 -57 -293 27 -76 26 -78 -19 -75 -28 2
-37 7 -33 17 3 9 1 12 -6 7 -7 -4 -12 -2 -12 5 0 7 -3 10 -6 6 -11 -10 27
-107 42 -107 17 0 17 1 4 35 -9 23 -8 26 6 21 8 -3 22 -6 30 -6 11 0 14 -29
14 -160 0 -92 4 -160 9 -160 5 0 11 10 13 23 3 20 10 23 88 29 92 7 195 1 223
-14 9 -5 17 -19 17 -31 1 -17 2 -19 9 -7 14 27 33 260 27 333 l-7 72 38 25
c79 51 172 68 211 37 9 -7 12 -1 11 24 -1 19 -3 26 -6 16 -4 -14 -11 -16 -37
-11 -18 3 -51 1 -72 -5 -26 -7 -40 -7 -44 0 -4 6 -11 4 -19 -5 -14 -17 -41
-10 -41 10 0 21 38 126 50 138 7 7 20 0 41 -20 25 -23 29 -25 20 -7 -17 33
-40 53 -55 47 -19 -7 -66 -115 -66 -152 0 -17 6 -32 13 -35 8 -3 6 -10 -8 -21
-37 -29 -44 -20 -28 33 8 28 13 68 11 89 l-3 40 -18 -24 c-14 -19 -15 -23 -2
-18 11 5 15 -1 14 -22 0 -16 -5 -38 -10 -49 -8 -17 -8 -16 -4 7 3 15 1 29 -4
32 -5 4 -42 -1 -83 -10 -40 -10 -91 -17 -113 -16 -33 0 -35 -1 -15 -7 l25 -7
-22 -8 c-13 -4 -23 -11 -23 -16 0 -61 109 -92 178 -50 46 28 40 32 -14 8 -56
-24 -110 -19 -137 13 -18 22 -18 23 40 46 32 14 82 27 110 30 l53 6 -11 -30
c-5 -17 -9 -34 -7 -39 6 -22 -28 -58 -75 -80 -120 -55 -270 -12 -297 86 -8 30
-7 32 4 18 15 -20 26 -14 26 13 0 22 35 43 57 35 9 -4 13 -1 10 6 -2 7 -12 12
-21 12 -55 -5 41 38 169 76 158 47 153 46 164 19 5 -13 10 -18 10 -11 1 23
-19 52 -35 52 -9 0 -29 11 -46 25 -16 14 -39 25 -50 25 -15 0 -8 -7 22 -23 23
-12 42 -26 42 -31 -1 -5 -36 -20 -79 -32 -163 -48 -218 -76 -252 -129 -12 -19
-12 -19 -7 3 3 19 2 21 -9 12 -22 -19 -7 56 23 112 17 34 37 53 66 68 37 18
38 20 15 20 -15 0 -38 -9 -52 -20z m333 -406 c0 -139 -17 -247 -38 -239 -9 3
-80 6 -159 6 l-143 0 0 37 c0 20 -3 74 -7 120 -6 77 -5 83 12 80 29 -5 29 21
1 32 -14 5 -26 14 -26 19 0 6 21 0 48 -11 92 -42 218 -23 276 41 11 12 23 21
28 21 4 0 8 -48 8 -106z"/>
<path d="M261 895 c-17 -20 -31 -40 -31 -46 0 -18 39 -88 54 -96 8 -4 16 -26
18 -48 2 -25 8 -40 16 -40 14 0 39 56 49 107 4 22 -1 31 -37 54 -40 26 -42 30
-37 66 3 21 4 38 2 38 -2 0 -17 -16 -34 -35z m18 -60 c3 19 21 -20 20 -45 l0
-25 -11 23 c-6 12 -15 22 -19 22 -17 0 -27 35 -16 60 10 25 10 25 17 -10 4
-19 8 -30 9 -25z m71 -54 c0 -22 -30 -84 -37 -77 -8 8 20 105 29 100 4 -3 8
-13 8 -23z"/>
<path d="M676 798 c-12 -31 -13 -48 -1 -36 8 7 25 68 19 68 -2 0 -10 -15 -18
-32z"/>
<path d="M1010 801 c0 -5 5 -13 10 -16 6 -3 10 -2 10 4 0 5 -4 13 -10 16 -5 3
-10 2 -10 -4z"/>
<path d="M1113 746 c0 -18 3 -24 9 -18 7 7 7 16 0 28 -8 14 -9 13 -9 -10z"/>
</g>
</svg>
